<?xml version="1.0" encoding="UTF-8"?>
<svg id="Layer_1" data-name="Layer 1" xmlns="http://www.w3.org/2000/svg" viewBox="0 0 1000 1000">
  <defs>
    <style>
      .cls-1 {
        fill: #eb5825;
      }
    </style>
  </defs>
  <g>
    <path class="cls-1" d="M265.91,275.36v-58.71h-96.29c-11.2,0-20.28,9.07-20.28,20.27,0,84.94,0,161.46,0,245.41,49.18,31.68,58.29,36.88,116.57,55.21,0-12.15,0-28.64,0-41.93-24.61-4.33-49.22-12.81-73.83-29.67v-53.26c19.56,12.78,39.11,21.27,58.67,26.29,0-13.61,0-33.03,0-47.6-19.56-4.82-39.11-12.78-58.67-24.59v-100.49c24.61,4.94,49.22,7.8,73.83,9.07Z"/>
    <path class="cls-1" d="M382.47,461.92c.26-.09.52-.17.78-.26,9.58-73.54,19.17-157.89,28.75-245.01h59.45c0,101.66,0,177.37,0,266.8-14.37,7.51-26.77,14.18-40.24,20.33,0-62.95-.17-114.15-.17-191.81-.26.06-.52.13-.78.19-9.58,80.17-18.8,138.62-28.39,204.55-13.47,5.31-28.11,10.61-40.66,13.93-10.36-57.59-20.84-109.85-31.2-197.24-.26.02-.52.04-.78.06,0,88.2.39,143.9.39,204-12.91,2.32-24,2.89-37.69,2.89,0-84.8,0-180.75,0-323.7h59.45c10.36,98.03,20.72,178.37,31.09,245.27Z"/>
    <path class="cls-1" d="M592.69,363.79c.26-.1.52-.2.78-.31,9.58-63.17,19.17-114.97,28.75-149.71h59.45c0,39.12,0,91.85,0,188.29-14.61,1.13-26.73,2.92-40.55,6.06,0-68.71.14-107.77.14-150.24-.26.04-.52.07-.78.11-9.58,43.85-18.57,86.55-28.16,158.21-15.42,5-27.32,10.24-41.12,16.08-10.36-61.56-20.61-96.28-30.97-150.18-.26.07-.52.14-.78.21,0,56.91.49,99.58.49,164.89-13.14,6.58-25.29,13.48-37.89,19.86,0-90.76.11-163.47.11-253.31h59.45c10.36,47.9,20.72,94.7,31.08,150.02Z"/>
    <path class="cls-1" d="M246.66,604.9c0,10.54.24,8.84.24,18.32-.36,11.87-6.41,23.59-20.63,24.97h0c17.12,8.37,23.82,25.75,23.82,31.75v4.82c0,16.95-16.54,19.35-48.45,19.5-10.13-.12-20.26-.26-30.39-.42-10.99-.18-19.81-9.17-19.81-20.17,0-55.65,0-109.51,0-170.07,20.36,12.81,17,10.78,39,23.48,0,0,27.91,13.9,27.91,13.9,27.59,15,28.29,27.43,28.29,53.92ZM183.37,565.82c0,26.59,0,43.69,0,67.77,0,0,0-11.45,0-11.45,3.36,1.53,6.72,2.99,10.07,4.36,22.48,6.63,24.74-1.62,24.74-14.08,0-9.39,0,1.34,0-8.8,0-12.33-8.12-21.34-19.44-27.95-5.13-3-10.25-6.29-15.38-9.86ZM183.36,646.57v35.21c6.1,1.11,12.19,2.1,18.28,3,10.73,1.52,16.35-.55,18.02-4.23,2.17-4.78,2.24-10.57.61-14.66-1.86-4.67-13.31-12.02-27.81-16.52l-9.1-2.8Z"/>
    <path class="cls-1" d="M442.74,704c-1.74-4-2.9-6.26-2.9-19.07v-7.88c0-15.04-6.12-19.35-20.63-16.33-3.76.74-7.53,1.47-11.29,2.17,0,14.72,0,28.52,0,41.41-10.64.08-21.27.16-31.91.22,0-36.58.69-86.02.69-148.69,16.56-5.4,36.81-13.73,52.82-21.38,33.08-14.93,41.93-2.18,41.93,28.19,0,6.75.02,10.89.02,17.57,0,19.86-6.67,39.43-20.89,49.37h0c15.96.92,21.18,12.32,21.18,31.57v20.7c0,8.83.29,15.14,3.48,21.84-10.83.11-21.66.21-32.5.31ZM407.93,570.73c0,25.67,0,49.49,0,71.48,4.03-1.01,8.07-2.06,12.1-3.13,11.9-3.04,19.53-16.49,19.53-30.78,0-10.26,0-20.74,0-31.42,0-13.26-4.93-17.02-16.25-12.27-5.13,2.12-10.25,4.17-15.38,6.13Z"/>
    <path class="cls-1" d="M559.96,631.22c.19-.04.39-.08.58-.12,7.16-58.62,13.53-119.62,20.69-173.28,14.8-6.3,29.93-11.68,44.91-15.98,0,72.8.26,161.28.26,260.52-10.06.06-20.12.13-30.18.21v-184.05c-.19.07-.39.13-.58.2-7.16,58.25-14.31,120.83-21.47,184.03-10.06.09-20.12.18-30.18.27-7.74-56.59-15.47-106.04-23.21-152.26-.19.08-.39.17-.58.25,0,49.53,0,100.28,0,152.24-9.28.09-18.57.18-27.85.27,0-65.5.57-134.33.57-201.67,14.79-7.94,32.37-17.55,47.16-24.84,7.74,45.44,12.13,98.77,19.86,154.21Z"/>
    <path class="cls-1" d="M753.76,524.06c0-37.91,27.72-69.97,58.25-51.78,37.7,22.47,37.88,71.91,37.88,80.23,0,35.2.77,67,.77,102.2,0,30.87-17.12,49.54-48.45,51.06-31.34.86-48.45-28.37-48.45-74.71v-107.01ZM785.68,638.61c0,19.43,6.38,27.75,16.54,29.07,10.16,1.37,16.54-4.25,16.54-21.39,0-43.48,0-68.54,0-108.14,0-15.58-2.14-31.19-12.3-37.33-10.15-6-20.78,2.12-20.78,18.66v119.12Z"/>
    <path class="cls-1" d="M810.59,226.73c8.85,37.46,26.58,150.94,39.12,242.93-19.72-14.47-27.42-20.88-42.44-30.37-2.46-17.07-7.34-28.69-9.8-44.76-17.48-10.9-30.75-17.7-48.24-22.22-2.46,13.71-6.7,19.66-9.17,34.96-13.32-3.51-26.1-5.73-39.24-5.7,14.5-97.13,43.79-184.91,43.83-184.91l53.22.05c6.05,0,11.32,4.14,12.71,10.03ZM753.76,339.11c14.6,4.03,26.4,8.39,41,16.68-7.49-48.8-13.54-81.03-21.03-112.45-7.11,29.28-12.86,54.86-19.96,95.77Z"/>
    <path class="cls-1" d="M356.32,592.35c0-8.29,0-21.65,0-30.53-23.17,5.46-53.61,11.79-87.08,6.28,0,61.63,0,106.48,0,136.65,29.01.09,58.03.03,87.04-.11,0-4.77,0-9.84,0-15.19-18.38,1.14-36.75,1.84-55.13,1.92,0-5.25,0-17.62,0-23.65,14.6-.12,29.21-.97,43.81-2.39v-18.39c-14.6,1.79-29.21,2.83-43.81,2.89,0-18.18.4-23.46.4-47.4,18.38-.31,33.06-2.62,54.76-10.08Z"/>
    <path class="cls-1" d="M736.64,473.04c0-11.21.13-26.22.13-36.79-31.78-8.37-71.74-4-87.18-.05,0,73.71,0,166.44,0,269.57h87.04v-44.06c-18.38-.79-36.75-.89-55.13-.47v-46.38c14.6-.65,29.21-.66,43.81.13v-38.06c-14.6-1.3-29.21-1.52-43.81-.86v-108.12c18.38-1.73,36.75,1.86,55.13,5.08Z"/>
  </g>
  <g>
    <path class="cls-1" d="M156.33,755.36c0-19.24,11.34-30.98,26.47-30.98,7.24,0,12.92,3.52,16.41,7.36l-4.16,4.94c-3.14-3.35-7.08-5.63-12.11-5.63-11.28,0-18.77,9.24-18.77,24.1s7.16,24.4,18.47,24.4c5.69,0,10.02-2.48,13.83-6.7l4.16,4.76c-4.71,5.47-10.56,8.61-18.3,8.61-14.86,0-26-11.49-26-30.87Z"/>
    <path class="cls-1" d="M257.16,725.47h18.68c12.15,0,20.87,4.36,20.87,16.79s-8.72,17.65-20.87,17.65h-11.09v25.22h-7.59v-59.66ZM274.75,753.76c9.28,0,14.39-3.76,14.39-11.5s-5.11-10.63-14.39-10.63h-10v22.13h10ZM274.35,757.84l5.95-3.93,18.2,31.22h-8.61l-15.54-27.3Z"/>
    <path class="cls-1" d="M354.35,725.47h34.39v6.43h-26.79v18.69h22.6v6.42h-22.6v21.69h27.7v6.42h-35.29v-59.66Z"/>
    <path class="cls-1" d="M459.98,725.47h8.56l20.18,59.66h-8.04l-10.4-33.32c-2.15-6.67-4.06-13.22-5.97-20.11h-.36c-1.85,6.92-3.76,13.43-5.9,20.11l-10.52,33.32h-7.73l20.18-59.66ZM450.41,760.9h27.47v6.06h-27.47v-6.06Z"/>
    <path class="cls-1" d="M550.04,731.9h-18.05v-6.43h43.69v6.43h-18.05v53.23h-7.59v-53.23Z"/>
    <path class="cls-1" d="M631.81,725.47h7.59v59.66h-7.59v-59.66Z"/>
    <path class="cls-1" d="M693.03,725.47h8.04l9.63,32.25c2.09,7.02,3.53,12.71,5.74,19.7h.36c2.21-7,3.68-12.68,5.74-19.7l9.56-32.25h7.72l-18.95,59.66h-8.8l-19.06-59.66Z"/>
    <path class="cls-1" d="M793.09,725.47h34.39v6.43h-26.79v18.69h22.6v6.42h-22.6v21.69h27.7v6.42h-35.29v-59.66Z"/>
  </g>
</svg>